<?xml version="1.0" encoding="utf-8"?>
<!-- Uploaded to: SVG Repo, www.svgrepo.com, Generator: SVG Repo Mixer Tools -->
<svg fill="#000000" width="800px" height="800px" viewBox="0 0 32 32" version="1.1" xmlns="http://www.w3.org/2000/svg">
<title>robot-arm</title>
<path d="M30.663 14.423l-3.593-0.663c-0.221-0.426-0.597-0.774-1.084-0.95-0.061-0.022-0.123-0.041-0.185-0.057l-4.024-7.963c0.382-0.767 0.431-1.684 0.053-2.516-0.672-1.482-2.441-2.128-3.951-1.443l-15.015 6.125c-1.829 0.83-2.652 2.958-1.838 4.753 0.347 0.765 0.935 1.345 1.638 1.696l5.468 13.482 0.232 0.589c-1.059 0.98-1.722 2.382-1.722 3.939h10.734c0-2.964-2.403-5.367-5.367-5.367-0.010 0-0.019 0-0.029 0l-0.383-1.051 0.060 0.015-0.105-0.138-4.383-12.042-0.004-0.051 12.066-6.041 4.238 7.212c-0.006 0.016-0.013 0.031-0.018 0.047-0.033 0.092-0.059 0.185-0.078 0.279l-3.378 2.057 1.136 1.035 1.646 3.513 1.68 0.313-0.683-4.858 0.258-0.155c0.175 0.149 0.38 0.27 0.609 0.353 0.87 0.315 1.817-0.018 2.313-0.751l1.231 4.724 1.468-0.874 0.294-3.442 0.139 0.025 0.579-1.792zM3.867 7.875c1.294-0.214 2.516 0.661 2.73 1.955s-0.661 2.516-1.955 2.73-2.516-0.661-2.73-1.955c-0.214-1.294 0.661-2.516 1.955-2.73zM17.367 3.785c-0.16-0.967 0.494-1.88 1.461-2.040 0.78-0.129 1.524 0.271 1.867 0.938 0.020 0.039 0.038 0.078 0.055 0.118 0.002 0.004 0.003 0.008 0.005 0.011 0.016 0.039 0.031 0.078 0.045 0.119 0 0.001 0.001 0.002 0.001 0.003 0.013 0.039 0.025 0.080 0.035 0.12 0.002 0.009 0.004 0.018 0.006 0.026 0.010 0.041 0.019 0.082 0.025 0.124 0 0 0 0 0 0 0.030 0.181 0.031 0.361 0.007 0.534-0.104 0.749-0.683 1.377-1.468 1.507-0.029 0.005-0.057 0.009-0.085 0.012-0.009 0.001-0.018 0.002-0.027 0.003-0.019 0.002-0.039 0.004-0.058 0.005-0.011 0.001-0.022 0.001-0.032 0.002-0.018 0.001-0.035 0.002-0.052 0.002-0.011 0-0.022 0-0.034 0-0.017 0-0.034-0-0.051-0.001-0.011-0-0.022-0.001-0.033-0.001-0.017-0.001-0.034-0.002-0.051-0.003-0.011-0.001-0.021-0.002-0.032-0.003-0.019-0.002-0.037-0.004-0.055-0.006-0.009-0.001-0.018-0.002-0.027-0.003-0.027-0.004-0.053-0.008-0.080-0.013-0.001-0-0.001-0-0.002-0-0.026-0.005-0.053-0.011-0.079-0.017-0.009-0.002-0.018-0.005-0.027-0.007-0.017-0.004-0.035-0.009-0.052-0.014-0.010-0.003-0.021-0.006-0.031-0.009-0.016-0.005-0.031-0.010-0.047-0.015-0.011-0.004-0.021-0.007-0.032-0.011-0.015-0.005-0.030-0.011-0.045-0.017-0.010-0.004-0.021-0.008-0.031-0.012-0.015-0.006-0.030-0.013-0.045-0.019-0.010-0.004-0.020-0.009-0.029-0.013-0.016-0.007-0.032-0.015-0.048-0.023-0.008-0.004-0.016-0.008-0.024-0.012-0.023-0.012-0.047-0.025-0.069-0.038-0-0-0.001-0-0.001-0.001v0c-0.442-0.257-0.77-0.702-0.86-1.245z"></path>
</svg>